<?xml version="1.0" encoding="UTF-8"?>
<svg id="Layer_2" data-name="Layer 2" xmlns="http://www.w3.org/2000/svg" viewBox="0 0 1309.17 464.18">
  <defs>
    <style>
      .cls-1 {
        fill: #f9a865;
      }

      .cls-2 {
        fill: #8dd122;
      }

      .cls-3 {
        fill: #fff;
      }
    </style>
  </defs>
  <g id="Layer_2-2" data-name="Layer 2">
    <g>
      <path class="cls-2" d="M529.53,82.29c56.72,0,105.33,39.64,105.33,126.85s-48.61,126.85-105.33,126.85-107.2-36.71-107.2-126.85,45.81-126.85,107.2-126.85ZM529.22,276.68c33.35,0,61.39-21.73,61.39-67.54s-28.04-67.54-61.39-67.54c-36.77,0-62.64,21.43-62.64,67.54s27.42,67.54,62.64,67.54Z"/>
      <path class="cls-2" d="M630.34,151.38h83.07l46.36,126.58h.26l45.31-126.58h79.69v181.85h-50v-145.65h-.52l-54.17,145.65h-46.61l-54.43-145.65h-.52v145.65h-48.44v-181.85Z"/>
      <path class="cls-2" d="M870.34,269.94c0-22.38,13.28-39.8,49.48-39.8h72.14v-1.93c0-18.52-10.42-25.98-39.84-25.98-27.09,0-33.86,8.01-33.86,16.03,0,.28,0,1.11.26,2.49h-43.75c-.26-2.49-.26-4.42-.26-4.97,0-25.98,22.13-44.49,79.43-44.49s84.38,22.11,84.38,61.63v77.66h-46.35c.52-9.4,1.3-21.83,1.3-30.4h-.26c-5.21,19.63-20.58,33.16-61.2,33.16-47.4,0-61.46-23.77-61.46-43.39ZM991.95,256.68v-1.1h-58.08c-15.62,0-22.4,2.76-22.4,11.61s8.86,15.2,33.33,15.2c31.25,0,47.14-14.37,47.14-25.7Z"/>
      <g>
        <path class="cls-2" d="M1033.95,151.38h50v139.84h73.89v42.01h-123.89v-181.85Z"/>
        <path class="cls-2" d="M1141.19,292.6c0-22.38,13.28-39.8,49.48-39.8h72.13v-1.93c0-18.52-10.41-25.98-39.84-25.98-27.08,0-33.85,8.01-33.85,16.03,0,.28,0,1.11.26,2.49h-43.75c-.26-2.49-.26-4.42-.26-4.97,0-25.98,22.14-44.49,79.43-44.49s84.38,22.11,84.38,61.63v77.66h-46.36c.52-9.4,1.3-21.83,1.3-30.4h-.26c-5.21,19.63-20.57,33.16-61.2,33.16-47.4,0-61.46-23.77-61.46-43.39ZM1262.81,279.34v-1.1h-58.07c-15.62,0-22.4,2.76-22.4,11.61s8.85,15.2,33.33,15.2c31.25,0,47.13-14.37,47.13-25.7Z"/>
      </g>
    </g>
    <g>
      <path class="cls-1" d="M454.06,359.99h33.85v36.79h.23l58.24-36.79h47.74l-56.61,35.18,59.76,46.33h-53.34l-36.07-29.23-19.96,11.77v17.47h-33.85v-81.51Z"/>
      <path class="cls-1" d="M607.64,359.99h33.96v81.51h-33.96v-81.51Z"/>
      <path class="cls-1" d="M694.47,384.39h-41.08v-24.4h116.01v24.4h-40.97v57.11h-33.96v-57.11Z"/>
      <path class="cls-1" d="M773.71,400.87c0-25.15,23.34-42.61,67.23-42.61s62.09,18.21,62.33,34.44c0,.62,0,1.74-.12,2.6h-29.53v-.5c0-5.95-8.52-13.38-30.58-13.38s-34.08,8.17-34.08,19.45c0,10.66,9.22,19.2,34.31,19.2,21.36,0,30.81-6.07,30.81-13.01v-.62h29.53c.12.87.12,1.98.12,2.23,0,17.96-17.97,34.56-62.44,34.56-47.74,0-67.58-19.33-67.58-42.37Z"/>
      <path class="cls-1" d="M916.68,359.99h33.96v27.87h64.43v-27.87h33.96v81.51h-33.96v-29.86h-64.43v29.86h-33.96v-81.51Z"/>
      <path class="cls-1" d="M1063.61,359.99h101.19v22.55h-67.34v11.27h49.84v13.5h-49.84v11.65h68.86v22.55h-102.71v-81.51Z"/>
      <path class="cls-1" d="M1178.91,359.99h46.45l54.04,44.47h.23v-44.47h29.53v81.51h-39.22l-61.28-50.54h-.23v50.54h-29.53v-81.51Z"/>
    </g>
    <g>
      <path class="cls-2" d="M364.77,133.57c-8.45-22.77-25.41-21.57-79.6-59.61C221.21,29.05,217.99,8.52,192.87,9.5c-33.91,1.32-35.06,39-92.84,73.37C47.64,114.02,18.05,101.22,4.02,127.74c-14.73,27.85,15.48,46.54,18.51,108.84,3.15,64.7-27.44,85.52-10.04,115.6,15.34,26.52,41.18,13.92,95.07,46.8,53.65,32.73,53.43,60.71,87.43,64.96,7.64.95,21.63,1.29,95.08-44.08,58.91-36.39,88.46-54.96,93.15-73.68,9.76-39.01-34.64-54.19-36.18-113.87-1.31-50.66,30.02-65.61,17.73-98.74ZM259.91,280.91c-6.51,14.77-7.83,33.41-20.03,40.71-12.38,7.41-30.15-.26-45.67-.26s-33.98,8.11-46.47,1.16c-12.72-7.09-14.41-25.73-20.98-40.85-5.21-11.99-19.78-24.2-19.78-41.7s14.53-29.69,19.74-41.77c6.48-15.02,8.09-33.74,20.96-40.89,12.3-6.83,30.05,1.26,46.53,1.26,15.52,0,33.29-7.68,45.67-.26,12.2,7.3,13.51,25.95,20.03,40.71,5.27,11.95,19.91,23.94,19.91,40.94s-14.64,28.99-19.91,40.94Z"/>
      <g>
        <path class="cls-3" d="M323.71,241.81l-16.39-219.93c-1.48-19.89-25.44-29.09-39.85-15.3L108.1,159.06c-67.67,64.74-44.92,177.89,42.51,211.45h0c87.44,33.56,180.06-35.3,173.09-128.7Z"/>
        <ellipse class="cls-2" cx="194.94" cy="258.03" rx="85.69" ry="85.68" transform="translate(-48.37 45) rotate(-11.73)"/>
      </g>
    </g>
  </g>
</svg>