<?xml version="1.0" encoding="UTF-8"?>
<svg id="Layer_2" data-name="Layer 2" xmlns="http://www.w3.org/2000/svg" viewBox="0 0 384.62 464.18">
  <defs>
    <style>
      .cls-1 {
        fill: #8dd122;
      }

      .cls-2 {
        fill: #fff;
      }
    </style>
  </defs>
  <g id="Layer_2-2" data-name="Layer 2">
    <g>
      <path class="cls-1" d="M364.77,133.57c-8.45-22.77-25.41-21.57-79.6-59.61C221.21,29.05,217.99,8.52,192.87,9.5c-33.91,1.32-35.06,39-92.84,73.37C47.64,114.02,18.05,101.22,4.02,127.74c-14.73,27.85,15.48,46.54,18.51,108.84,3.15,64.7-27.44,85.52-10.04,115.6,15.34,26.52,41.18,13.92,95.07,46.8,53.65,32.73,53.43,60.71,87.43,64.96,7.64.95,21.63,1.29,95.08-44.08,58.91-36.39,88.46-54.96,93.15-73.68,9.76-39.01-34.64-54.19-36.18-113.87-1.31-50.66,30.02-65.61,17.73-98.74ZM259.91,280.91c-6.51,14.77-7.83,33.41-20.03,40.71-12.38,7.41-30.15-.26-45.67-.26s-33.98,8.11-46.47,1.16c-12.72-7.09-14.41-25.73-20.98-40.85-5.21-11.99-19.78-24.2-19.78-41.7s14.53-29.69,19.74-41.77c6.48-15.02,8.09-33.74,20.96-40.89,12.3-6.83,30.05,1.26,46.53,1.26,15.52,0,33.29-7.68,45.67-.26,12.2,7.3,13.51,25.95,20.03,40.71,5.27,11.95,19.91,23.94,19.91,40.94s-14.64,28.99-19.91,40.94Z"/>
      <path class="cls-2" d="M323.71,241.81l-16.39-219.93c-1.48-19.89-25.44-29.09-39.85-15.3L108.1,159.06c-67.67,64.74-44.92,177.89,42.51,211.45h0c87.44,33.56,180.06-35.3,173.09-128.7Z"/>
      <ellipse class="cls-1" cx="194.94" cy="258.03" rx="85.69" ry="85.68" transform="translate(-48.37 45) rotate(-11.73)"/>
    </g>
  </g>
</svg>