<?xml version="1.0" encoding="UTF-8"?>
<svg id="Layer_2" data-name="Layer 2" xmlns="http://www.w3.org/2000/svg" viewBox="0 0 886.84 360.95">
  <defs>
    <style>
      .cls-1 {
        fill: #f9a865;
      }

      .cls-2 {
        fill: #8dd122;
      }
    </style>
  </defs>
  <g id="Layer_2-2" data-name="Layer 2">
    <g>
      <g>
        <path class="cls-2" d="M107.2,0c56.72,0,105.33,39.64,105.33,126.85s-48.61,126.85-105.33,126.85S0,217,0,126.85,45.81,0,107.2,0ZM106.89,194.39c33.35,0,61.39-21.73,61.39-67.54s-28.04-67.54-61.39-67.54c-36.77,0-62.64,21.43-62.64,67.54s27.42,67.54,62.64,67.54Z"/>
        <path class="cls-2" d="M208.01,69.09h83.07l46.36,126.58h.26l45.31-126.58h79.69v181.85h-50V105.29h-.52l-54.17,145.65h-46.61l-54.43-145.65h-.52v145.65h-48.44V69.09Z"/>
        <path class="cls-2" d="M448.01,187.65c0-22.38,13.28-39.8,49.48-39.8h72.14v-1.93c0-18.52-10.42-25.98-39.84-25.98-27.09,0-33.86,8.01-33.86,16.03,0,.28,0,1.11.26,2.49h-43.75c-.26-2.49-.26-4.42-.26-4.97,0-25.98,22.13-44.49,79.43-44.49s84.38,22.11,84.38,61.63v77.66h-46.35c.52-9.4,1.3-21.83,1.3-30.4h-.26c-5.21,19.63-20.58,33.16-61.2,33.16-47.4,0-61.46-23.77-61.46-43.39ZM569.62,174.39v-1.1h-58.08c-15.62,0-22.4,2.76-22.4,11.61s8.86,15.2,33.33,15.2c31.25,0,47.14-14.37,47.14-25.7Z"/>
        <g>
          <path class="cls-2" d="M611.62,69.09h50v139.84h73.89v42.01h-123.89V69.09Z"/>
          <path class="cls-2" d="M718.86,210.31c0-22.38,13.28-39.8,49.48-39.8h72.13v-1.93c0-18.52-10.41-25.98-39.84-25.98-27.08,0-33.85,8.01-33.85,16.03,0,.28,0,1.11.26,2.49h-43.75c-.26-2.49-.26-4.42-.26-4.97,0-25.98,22.14-44.49,79.43-44.49s84.38,22.11,84.38,61.63v77.66h-46.36c.52-9.4,1.3-21.83,1.3-30.4h-.26c-5.21,19.63-20.57,33.16-61.2,33.16-47.4,0-61.46-23.77-61.46-43.39ZM840.48,197.05v-1.1h-58.07c-15.62,0-22.4,2.76-22.4,11.61s8.85,15.2,33.33,15.2c31.25,0,47.13-14.37,47.13-25.7Z"/>
        </g>
      </g>
      <g>
        <path class="cls-1" d="M31.73,277.7h33.85v36.79h.23l58.24-36.79h47.74l-56.61,35.18,59.76,46.33h-53.34l-36.07-29.23-19.96,11.77v17.47H31.73v-81.51Z"/>
        <path class="cls-1" d="M185.31,277.7h33.96v81.51h-33.96v-81.51Z"/>
        <path class="cls-1" d="M272.14,302.1h-41.08v-24.4h116.01v24.4h-40.97v57.11h-33.96v-57.11Z"/>
        <path class="cls-1" d="M351.38,318.58c0-25.15,23.34-42.61,67.23-42.61s62.09,18.21,62.33,34.44c0,.62,0,1.74-.12,2.6h-29.53v-.5c0-5.95-8.52-13.38-30.58-13.38s-34.08,8.17-34.08,19.45c0,10.66,9.22,19.2,34.31,19.2,21.36,0,30.81-6.07,30.81-13.01v-.62h29.53c.12.87.12,1.98.12,2.23,0,17.96-17.97,34.56-62.44,34.56-47.74,0-67.58-19.33-67.58-42.37Z"/>
        <path class="cls-1" d="M494.35,277.7h33.96v27.87h64.43v-27.87h33.96v81.51h-33.96v-29.86h-64.43v29.86h-33.96v-81.51Z"/>
        <path class="cls-1" d="M641.28,277.7h101.19v22.55h-67.34v11.27h49.84v13.5h-49.84v11.65h68.86v22.55h-102.71v-81.51Z"/>
        <path class="cls-1" d="M756.58,277.7h46.45l54.04,44.47h.23v-44.47h29.53v81.51h-39.22l-61.28-50.54h-.23v50.54h-29.53v-81.51Z"/>
      </g>
    </g>
  </g>
</svg>