<?xml version="1.0" encoding="UTF-8"?>
<svg id="Layer_2" data-name="Layer 2" xmlns="http://www.w3.org/2000/svg" viewBox="0 0 746.79 720.7">
  <defs>
    <style>
      .cls-1 {
        fill: #f9a865;
      }

      .cls-2 {
        fill: #8dd122;
      }

      .cls-3 {
        fill: #fff;
      }
    </style>
  </defs>
  <g id="Layer_2-2" data-name="Layer 2">
    <g>
      <g>
        <path class="cls-2" d="M90.27,416.75c47.76,0,88.7,33.38,88.7,106.82s-40.93,106.82-88.7,106.82S0,599.48,0,523.57s38.57-106.82,90.27-106.82ZM90.01,580.44c28.08,0,51.69-18.3,51.69-56.87s-23.61-56.87-51.69-56.87c-30.97,0-52.74,18.05-52.74,56.87s23.09,56.87,52.74,56.87Z"/>
        <path class="cls-2" d="M175.16,474.93h69.95l39.04,106.59h.22l38.16-106.59h67.1v153.13h-42.1v-122.65h-.44l-45.61,122.65h-39.25l-45.83-122.65h-.44v122.65h-40.79v-153.13Z"/>
        <path class="cls-2" d="M377.26,574.77c0-18.85,11.18-33.51,41.66-33.51h60.75v-1.63c0-15.59-8.77-21.88-33.55-21.88-22.81,0-28.51,6.75-28.51,13.5,0,.24,0,.93.22,2.09h-36.84c-.22-2.09-.22-3.72-.22-4.19,0-21.88,18.64-37.47,66.88-37.47s71.05,18.62,71.05,51.9v65.4h-39.03c.44-7.91,1.09-18.38,1.09-25.6h-.22c-4.39,16.53-17.33,27.93-51.54,27.93-39.91,0-51.75-20.01-51.75-36.54ZM479.67,563.6v-.93h-48.91c-13.16,0-18.86,2.33-18.86,9.77s7.46,12.8,28.07,12.8c26.32,0,39.69-12.1,39.69-21.64Z"/>
        <g>
          <path class="cls-2" d="M515.03,474.93h42.1v117.76h62.22v35.37h-104.33v-153.13Z"/>
          <path class="cls-2" d="M605.34,593.85c0-18.85,11.18-33.51,41.67-33.51h60.74v-1.63c0-15.59-8.77-21.88-33.55-21.88-22.8,0-28.51,6.75-28.51,13.5,0,.24,0,.93.22,2.09h-36.84c-.22-2.09-.22-3.72-.22-4.19,0-21.88,18.64-37.47,66.89-37.47s71.05,18.62,71.05,51.9v65.4h-39.04c.44-7.91,1.1-18.38,1.1-25.6h-.22c-4.39,16.53-17.32,27.93-51.54,27.93-39.91,0-51.75-20.01-51.75-36.54ZM707.75,582.68v-.93h-48.9c-13.16,0-18.86,2.33-18.86,9.77s7.45,12.8,28.07,12.8c26.31,0,39.69-12.1,39.69-21.64Z"/>
        </g>
      </g>
      <g>
        <path class="cls-1" d="M26.72,650.6h28.5v30.98h.2l49.04-30.98h40.2l-47.67,29.63,50.32,39.01h-44.92l-30.37-24.62-16.81,9.91v14.71h-28.5v-68.64Z"/>
        <path class="cls-1" d="M156.05,650.6h28.6v68.64h-28.6v-68.64Z"/>
        <path class="cls-1" d="M229.17,671.15h-34.6v-20.55h97.69v20.55h-34.5v48.09h-28.6v-48.09Z"/>
        <path class="cls-1" d="M295.89,685.02c0-21.17,19.66-35.88,56.61-35.88s52.29,15.33,52.48,29c0,.52,0,1.46-.1,2.19h-24.87v-.42c0-5.01-7.17-11.27-25.75-11.27s-28.7,6.88-28.7,16.38c0,8.97,7.76,16.17,28.9,16.17,17.99,0,25.95-5.11,25.95-10.95v-.52h24.87c.1.73.1,1.67.1,1.88,0,15.13-15.14,29.1-52.58,29.1-40.2,0-56.91-16.28-56.91-35.68Z"/>
        <path class="cls-1" d="M416.28,650.6h28.6v23.47h54.25v-23.47h28.6v68.64h-28.6v-25.14h-54.25v25.14h-28.6v-68.64Z"/>
        <path class="cls-1" d="M540.01,650.6h85.21v18.99h-56.71v9.49h41.97v11.37h-41.97v9.81h57.99v18.99h-86.49v-68.64Z"/>
        <path class="cls-1" d="M637.1,650.6h39.12l45.51,37.45h.2v-37.45h24.87v68.64h-33.02l-51.6-42.56h-.2v42.56h-24.87v-68.64Z"/>
      </g>
    </g>
    <g>
      <path class="cls-2" d="M611.01,133.57c-8.45-22.77-25.41-21.57-79.6-59.61-63.96-44.91-67.18-65.43-92.3-64.46-33.91,1.32-35.06,39-92.84,73.37-52.38,31.15-81.97,18.35-96,44.87-14.73,27.85,15.48,46.54,18.51,108.84,3.15,64.7-27.44,85.52-10.04,115.6,15.34,26.52,41.18,13.92,95.07,46.8,53.65,32.73,53.43,60.71,87.43,64.96,7.64.95,21.63,1.29,95.08-44.08,58.91-36.39,88.46-54.96,93.15-73.68,9.76-39.01-34.64-54.19-36.18-113.87-1.31-50.66,30.02-65.61,17.73-98.74ZM506.15,280.91c-6.51,14.77-7.83,33.41-20.03,40.71-12.38,7.41-30.15-.26-45.67-.26s-33.98,8.11-46.47,1.16c-12.72-7.09-14.41-25.73-20.98-40.85-5.21-11.99-19.78-24.2-19.78-41.7s14.53-29.69,19.74-41.77c6.48-15.02,8.09-33.74,20.96-40.89,12.3-6.83,30.05,1.26,46.53,1.26,15.52,0,33.29-7.68,45.67-.26,12.2,7.3,13.51,25.95,20.03,40.71,5.27,11.95,19.91,23.94,19.91,40.94s-14.64,28.99-19.91,40.94Z"/>
      <path class="cls-3" d="M569.95,241.81l-16.39-219.93c-1.48-19.89-25.44-29.09-39.85-15.3l-159.36,152.48c-67.67,64.74-44.92,177.89,42.51,211.45h0c87.44,33.56,180.06-35.3,173.09-128.7Z"/>
      <ellipse class="cls-2" cx="441.18" cy="258.03" rx="85.69" ry="85.68" transform="translate(-43.23 95.05) rotate(-11.73)"/>
    </g>
  </g>
</svg>